<svg width="268" height="190.99999999999997" xmlns="http://www.w3.org/2000/svg">
 <g id="Layer_1">
  <title>Layer 1</title>
  <path id="svg_1" d="m150.36177,77.21282c12.19149,0 24.38298,0 36.57447,0c0,12.19149 0,24.38298 0,36.57447c-12.19149,0 -24.38298,0 -36.57447,0c0,-12.19149 0,-24.38298 0,-36.57447zm-52.82981,0c13.54602,0 27.09229,0 40.63832,0c0,12.19149 0,24.38298 0,36.57447c-13.54602,0 -27.09229,0 -40.63832,0c0,-12.19149 0,-24.38298 0,-36.57447zm-48.76596,0c13.54602,0 27.09229,0 40.6383,0c0,12.19149 0,24.38298 0,36.57447c-13.54602,0 -27.09229,0 -40.6383,0c0,-12.19149 0,-24.38298 0,-36.57447zm-48.76596,0c13.54602,0 27.09229,0 40.63831,0c0,12.19149 0,24.38298 0,36.57447c-13.54602,0 -27.09229,0 -40.63831,0c0,-12.19149 0,-24.38298 0,-36.57447zm150.36174,75.42313c12.86887,-0.82577 25.73751,0.58344 38.60639,-0.24232c0.82571,-12.86879 0.44325,-25.7376 1.26895,-38.60639c12.04317,0 25.29451,0 37.33743,0c0,-12.19149 0,-24.38299 0,-36.57447c-12.19149,0 -24.38298,0 -36.57447,0c0,-13.54612 0,-27.09221 0,-40.6383c-13.54602,0 -27.09229,0 -40.6383,0c0,-12.19149 0,-24.38298 0,-36.57447c13.54602,0 27.09229,0 40.6383,0c0,12.19149 0,24.38298 0,36.57447c12.04293,0 25.29426,-0.60408 37.33743,-0.60408c0.82571,12.86875 0.44326,26.34167 1.26897,39.21046c12.86886,0.82574 25.91901,-0.07005 38.7879,0.75569c0,12.04306 -0.18151,25.80762 -0.18151,37.8507c-13.54602,0 -27.09229,0 -40.6383,0c0,13.54612 0,27.09219 0,40.6383c-12.19149,0 -24.38298,0 -36.57447,0c0,12.19149 0,24.38298 0,36.57447c-13.54602,0 -27.09229,0 -40.6383,0c0,-12.04306 0,-26.32101 0,-38.36408l-0.00001,0.00003z" stroke-width="0" stroke="#000" fill="#d1b3ef"/>
 </g>
</svg>