<svg width="1584" height="396" xmlns="http://www.w3.org/2000/svg">

 <g>
  <title>Layer 1</title>
  <text transform="matrix(2.66411 0 0 2.66411 -210.075 -221.666)" stroke="#000" font-weight="bold" xml:space="preserve" text-anchor="start" font-family="'Lexend'" font-size="70" id="svg_1" y="179.9476" x="102.36417" stroke-width="0" fill="#d1b3ef">Bianca Togonon</text>
  <text font-style="normal" stroke-dasharray="2,2" xml:space="preserve" text-anchor="start" font-family="'Manrope'" font-size="55" id="svg_2" y="320.44042" x="133.01185" stroke-width="0" stroke="#000" fill="#8f70ad">full stack software engineer</text>
  <path id="svg_4" d="m1859.82812,-171.0813l-0.05491,0l-0.01695,-0.05217l-0.00238,0.00729l-0.01459,0.04489l-0.0549,-0.00001l0.04441,0.03227l-0.01698,0.0522l0.04442,-0.03227l0.04443,0.03229l-0.01699,-0.05222l0.04443,-0.03227zm-0.06599,0.04411l-0.00588,-0.00427l-0.00588,0.00427l-0.01951,0.01417l0.00745,-0.02292l0.00225,-0.00691l-0.00589,-0.00428l-0.0195,-0.01417l0.03138,0l0.00225,-0.00691l0.00745,-0.02292l0.00745,0.02291l0.00225,0.00691l0.03141,0l-0.01953,0.01418l-0.00589,0.00427l0.00225,0.00692l0.00747,0.02292l-0.01951,-0.01418z" stroke="#000" fill="#d1b3ef"/>
  <path id="svg_7" d="m1796.00364,455.94813c-0.01388,0.07122 0.02542,0.139 0.0561,0.20053c0.06535,0.10852 0.14118,0.21297 0.23633,0.29732c0.06493,0.05344 0.12343,0.11499 0.19695,0.15734c0.09611,0.06476 0.19931,0.11779 0.30632,0.1619c0.07957,0.03468 0.16301,0.05928 0.24827,0.07541c0.0248,0.00643 0.09413,0.02458 0.051,-0.01801c-0.03578,-0.01511 -0.07384,-0.02613 -0.10981,-0.04188c-0.17464,-0.0717 -0.36021,-0.13471 -0.5011,-0.26552c-0.02334,-0.031 0.04479,0.01675 0.05653,0.02984c0.11754,0.08368 0.25181,0.13979 0.38423,0.19521c0.06737,0.02232 0.141,0.0699 0.21257,0.03613c0.06183,-0.02362 -0.01479,-0.02724 -0.0421,-0.03624c-0.12142,-0.03452 -0.24426,-0.06771 -0.35569,-0.1288c-0.06363,-0.02328 -0.11711,-0.06613 -0.17427,-0.10146c-0.06175,-0.04266 -0.11827,-0.0925 -0.17839,-0.13748c-0.03934,-0.02983 -0.07843,-0.05994 -0.11101,-0.09733c-0.05508,-0.05512 -0.1085,-0.11181 -0.15842,-0.17166c-0.03262,-0.03682 -0.06931,-0.07053 -0.09223,-0.11469l-0.02528,-0.04058zm1.28226,0.69566c-0.00753,-0.00024 -0.0153,0.00141 -0.02181,0.00575c-0.04861,0.02431 -0.0382,0.06945 -0.06597,0.10417c-0.02083,0.02778 -0.04514,0.04167 -0.07986,0.05208c0.00694,0.01389 0.02083,0.03472 0.02083,0.05208c0,0.0382 -0.04514,0.07292 -0.07986,0.06945c-0.01389,-0.00347 -0.04514,-0.02083 -0.05556,0c-0.00347,0.00694 -0.00347,0.01389 0,0.01736c0,0.01389 0.01736,0.02083 0.03125,0.02778c0.0382,0.01042 0.07986,-0.00347 0.11111,-0.02431c0.02431,-0.01389 0.04167,-0.0382 0.04861,-0.06597l0.00694,-0.04514c0.00347,-0.01389 0.01736,-0.01736 0.03472,-0.04167c0.02083,-0.02778 0.04167,-0.07639 0.06945,-0.09722c0.01042,-0.00694 0.02083,-0.01042 0.03472,-0.01389c-0.00694,-0.01042 -0.01389,-0.01736 -0.02083,-0.02778c-0.00694,-0.00347 -0.01389,-0.01042 -0.02083,-0.01042c-0.00391,-0.0013 -0.0084,-0.00214 -0.01291,-0.00228zm0.14703,0.13108c-0.01305,-0.00014 -0.02669,0.00271 -0.04037,0.00662l0.02778,0.01736c-0.00694,0.01389 -0.02431,0.04167 -0.02083,0.05903c0.00347,0.03472 0.05208,0.03472 0.07292,0.01389c0.02431,-0.02778 0.02431,-0.06945 -0.01042,-0.09028c-0.00911,-0.00456 -0.01893,-0.00651 -0.02908,-0.00662zm-0.06695,0.01704c-0.00272,0.00001 -0.00537,0.00004 -0.00803,0.00011c-0.01924,0.00105 -0.03848,0.00251 -0.05773,0.00336c-0.01209,0.00016 -0.02444,-0.00002 -0.03613,0.00347c-0.01586,0.01013 -0.02647,0.02691 -0.03266,0.04438c-0.00083,0.00252 -0.00154,0.0051 -0.00206,0.0077c0.01931,0.00875 0.04086,0.00781 0.06152,0.00705c0.01252,-0.00033 0.02505,0.00123 0.03754,0.00184c0.00894,0.0004 0.01786,0.00162 0.0268,0.0013c0.01097,-0.00036 0.02113,-0.00658 0.02691,-0.01584c0.005,-0.00791 0.00972,-0.0161 0.0128,-0.02496c0.00249,-0.00795 0.00295,-0.019 -0.00532,-0.02376c-0.00719,-0.00397 -0.0155,-0.0047 -0.02366,-0.00467l0,0zm0.0127,0.07986c-0.00347,0.00347 -0.00694,0.00347 -0.01042,0.00694c-0.00347,0.01736 0.04167,0.05903 0.04861,0.02083c-0.01736,-0.00694 -0.02778,-0.01389 -0.0382,-0.02778l0,0z" stroke="#000" fill="#d1b3ef"/>
  <path id="svg_11" d="m767.9722,-151.9609c-0.01405,0.00132 -0.02841,0.00224 -0.04318,0.00224l0,0c-0.01321,0 -0.02605,-0.00072 -0.03857,-0.0018l0,0l-0.1084,0.13933l-0.02666,-0.00756c-0.03129,-0.00879 -0.06168,-0.01981 -0.09091,-0.03304l0,0l-0.02534,-0.01146l0.00652,-0.17501c-0.02304,-0.01613 -0.04453,-0.03408 -0.06444,-0.05376l0,0l-0.17139,0.03682l-0.01565,-0.02299c-0.01836,-0.02699 -0.03401,-0.05527 -0.04789,-0.08387l0,0l-0.01205,-0.02498l0.11637,-0.12881c-0.00728,-0.02727 -0.01209,-0.05543 -0.01458,-0.08412l0,0l-0.15421,-0.08154l0.0028,-0.02762c0.00331,-0.03304 0.0097,-0.06466 0.01734,-0.09505l0,0l0.00682,-0.02696l0.17201,-0.02381c0.01227,-0.02589 0.02671,-0.05042 0.04297,-0.07348l0,0l-0.06563,-0.1616l0.01981,-0.0194c0.02329,-0.02268 0.04822,-0.04324 0.07423,-0.06204l0,0l0.02253,-0.01625l0.14848,0.09325c0.02502,-0.01153 0.05119,-0.02101 0.07831,-0.02828l0,0l0.05382,-0.16701l0.02775,-0.00211c0.01494,-0.0011 0.03101,-0.00239 0.04847,-0.00239l0,0c0.01742,0 0.03343,0.00129 0.04838,0.00239l0,0l0.02775,0.00211l0.05441,0.16875c0.02608,0.00727 0.05135,0.01657 0.07557,0.02784l0,0l0.15056,-0.09458l0.02261,0.01625c0.02601,0.01877 0.05099,0.0394 0.07423,0.06198l0,0l0.01989,0.0194l-0.06765,0.16638c0.01474,0.02142 0.02803,0.04409 0.03938,0.06793l0,0l0.17738,0.02456l0.0069,0.02696c0.00775,0.03036 0.01411,0.06198 0.01734,0.09508l0,0l0.0028,0.02762l-0.1596,0.08437c-0.00239,0.02617 -0.00664,0.05194 -0.01299,0.07704l0,0l0.12024,0.13284l-0.01209,0.02507c-0.01383,0.02869 -0.0294,0.05707 -0.04784,0.08396l0,0l-0.01565,0.02293l-0.17564,-0.03763c-0.01861,0.01861 -0.03877,0.03575 -0.06031,0.05121l0,0l0.00669,0.17845l-0.0254,0.0115c-0.02926,0.01316 -0.0596,0.02422 -0.09089,0.03301l0,0l-0.02676,0.00756l-0.10864,-0.13968l0,0l0,0zm0.13939,0.04469c0.00937,-0.00312 0.01858,-0.00649 0.0277,-0.01008l0,0l-0.00627,-0.16852l0.01976,-0.01269c0.0296,-0.01921 0.05656,-0.04227 0.0805,-0.06844l0,0l0.01594,-0.01745l0.1662,0.03559c0.00499,-0.00835 0.00983,-0.01688 0.01449,-0.0256l0,0l-0.11368,-0.12569l0.00705,-0.02246c0.01003,-0.03234 0.01573,-0.06702 0.01742,-0.1032l0,0l0.00104,-0.02356l0.151,-0.07981c-0.00157,-0.00967 -0.00338,-0.01927 -0.00545,-0.02891l0,0l-0.16801,-0.02324l-0.00904,-0.02173c-0.01351,-0.0325 -0.03138,-0.06293 -0.05272,-0.09099l0,0l-0.01411,-0.01871l0.0639,-0.15719c-0.0074,-0.00649 -0.01499,-0.01279 -0.02279,-0.0189l0,0l-0.14264,0.08954l-0.02101,-0.01109c-0.03112,-0.01638 -0.06477,-0.02882 -0.10026,-0.03688l0,0l-0.02296,-0.00526l-0.05151,-0.15974c-0.00501,-0.00025 -0.00987,-0.00038 -0.01461,-0.00038l0,0c-0.00483,0 -0.0097,0.00013 -0.01474,0.00038l0,0l-0.05115,0.1587l-0.02329,0.00498c-0.03611,0.00775 -0.07055,0.02038 -0.10262,0.03697l0,0l-0.02096,0.0109l-0.14032,-0.08812c-0.00775,0.00611 -0.01535,0.01241 -0.02269,0.0189l0,0l0.0622,0.15306l-0.01461,0.01874c-0.02279,0.02926 -0.04173,0.06132 -0.05593,0.09574l0,0l-0.00899,0.02183l-0.1626,0.02249c-0.00206,0.00964 -0.00389,0.01924 -0.00542,0.02891l0,0l0.14577,0.07707l0.0009,0.02375c0.00153,0.03833 0.00794,0.07512 0.01896,0.10951l0,0l0.00721,0.02261l-0.11009,0.12179c0.00463,0.00875 0.00945,0.01729 0.01449,0.02564l0,0l0.16166,-0.0348l0.01609,0.01745c0.0248,0.02715 0.05313,0.05074 0.08434,0.07033l0,0l0.02014,0.01256l-0.00616,0.16594c0.00913,0.00359 0.01838,0.00696 0.02775,0.01008l0,0l0.10232,-0.13158l0.02337,0.00286c0.01764,0.00224 0.0348,0.00369 0.05189,0.00369l0,0c0.01838,0 0.03691,-0.00161 0.05585,-0.00428l0,0l0.02357,-0.00331l0.10311,0.13262l0,0l0,0zm0.04664,-0.34171l0.02255,0.03464l-0.14295,0.093l-0.05074,-0.07808l0,0c-0.01846,0.0045 -0.03786,0.00715 -0.05804,0.00715l0,0c-0.13969,0 -0.25288,-0.11322 -0.25288,-0.25277l0,0c0,-0.13968 0.11319,-0.25287 0.25288,-0.25287l0,0c0.13953,0 0.25276,0.11319 0.25276,0.25287l0,0c0,0.05735 -0.01927,0.11048 -0.05159,0.1529l0,0l0.02801,0.04315m-0.09617,0.01332l0.00446,-0.00283l-0.04075,-0.0627l0.02362,-0.02362c0.03088,-0.03096 0.04982,-0.07319 0.04982,-0.12021l0,0c-0.00017,-0.09401 -0.07629,-0.17013 -0.17019,-0.17032l0,0c-0.09412,0.00019 -0.17016,0.07622 -0.17032,0.17032l0,0c0.00016,0.09392 0.07628,0.17004 0.17032,0.17023l0,0c0.02101,0 0.04123,-0.00432 0.0608,-0.01181l0,0l0.03121,-0.01197l0.04104,0.06292l0,0z" stroke="#000" fill="#d1b3ef"/>
  <path id="svg_13" d="m1185.503,692.02546c-0.0694,-0.01413 -0.12179,-0.08254 -0.10441,-0.15368c0.02457,-0.0998 0.11768,-0.16883 0.21086,-0.20164c0.06207,-0.02061 0.1325,-0.0175 0.19078,0.01315c0.0052,-0.38118 0.00223,-0.76246 0.00302,-1.14369c0.02104,-0.00001 0.04803,-0.0068 0.04232,0.02367c0.00294,0.06846 0.03658,0.13113 0.08828,0.17529c0.11534,0.10746 0.2451,0.22415 0.27159,0.38793c0.00752,0.0691 -0.00054,0.13873 -0.01589,0.20621c0.04546,0.08484 0.04272,0.18763 0.02426,0.27965c-0.01197,0.04859 -0.03149,0.0954 -0.05631,0.13874c-0.0586,0.02728 0.00695,-0.04458 0.00612,-0.07047c0.03169,-0.07777 0.03533,-0.1644 0.02091,-0.24632c-0.0314,-0.11984 -0.15013,-0.17839 -0.2456,-0.24105c-0.03454,-0.01352 -0.10839,-0.09505 -0.09374,-0.01516c-0.0032,0.21657 -0.00265,0.43317 -0.00366,0.64976c-0.04008,0.10041 -0.13201,0.17705 -0.2388,0.19626c-0.03271,0.00565 -0.06697,0.00772 -0.09974,0.00134l0,0zm0.66582,-0.81886c0.00095,-0.12325 -0.09085,-0.22297 -0.18081,-0.29606c-0.04501,-0.03394 -0.0927,-0.06989 -0.14331,-0.09185c0.00311,0.07087 0.03555,0.13993 0.07437,0.19879c0.07316,0.09802 0.1836,0.16359 0.24489,0.27151c0.00735,-0.0268 0.00513,-0.05492 0.00487,-0.08238z" stroke-width="0" stroke="#000" fill="#8f70ad"/>
  <path id="svg_14" d="m928.791,549.25251c-0.0694,-0.01896 -0.12179,-0.11076 -0.10441,-0.20621c0.02457,-0.13391 0.11768,-0.22655 0.21086,-0.27057c0.06207,-0.02766 0.1325,-0.02348 0.19078,0.01765c0.0052,-0.5115 0.00223,-1.02312 0.00302,-1.53468c0.02104,-0.00001 0.04803,-0.00912 0.04232,0.03176c0.00294,0.09186 0.03658,0.17595 0.08828,0.23521c0.11534,0.1442 0.2451,0.30078 0.27159,0.52055c0.00752,0.09272 -0.00054,0.18616 -0.01589,0.2767c0.04546,0.11385 0.04272,0.25178 0.02426,0.37525c-0.01197,0.0652 -0.03149,0.12801 -0.05631,0.18617c-0.0586,0.0366 0.00695,-0.05983 0.00612,-0.09456c0.03169,-0.10436 0.03533,-0.2206 0.02091,-0.33053c-0.0314,-0.16081 -0.15013,-0.23938 -0.2456,-0.32345c-0.03454,-0.01814 -0.10839,-0.12755 -0.09374,-0.02034c-0.0032,0.29061 -0.00265,0.58126 -0.00366,0.87189c-0.04008,0.13474 -0.13201,0.23757 -0.2388,0.26336c-0.03271,0.00759 -0.06697,0.01036 -0.09974,0.00179l0,0zm0.66582,-1.0988c0.00095,-0.16539 -0.09085,-0.2992 -0.18081,-0.39728c-0.04501,-0.04554 -0.0927,-0.09378 -0.14331,-0.12326c0.00311,0.0951 0.03555,0.18777 0.07437,0.26675c0.07316,0.13153 0.1836,0.21951 0.24489,0.36433c0.00735,-0.03596 0.00513,-0.07369 0.00487,-0.11054z" stroke-width="0" stroke="#000" fill="#d1b3ef"/>
  <path id="svg_15" d="m972.5713,218.40168c-0.0694,-0.01413 -0.12179,-0.08254 -0.10441,-0.15368c0.02457,-0.0998 0.11768,-0.16883 0.21086,-0.20164c0.06207,-0.02061 0.1325,-0.0175 0.19078,0.01315c0.0052,-0.38118 0.00223,-0.76246 0.00302,-1.14369c0.02104,-0.00001 0.04803,-0.0068 0.04232,0.02367c0.00294,0.06846 0.03658,0.13113 0.08828,0.17529c0.11534,0.10746 0.2451,0.22415 0.27159,0.38793c0.00752,0.0691 -0.00054,0.13873 -0.01589,0.20621c0.04546,0.08484 0.04272,0.18763 0.02426,0.27965c-0.01197,0.04859 -0.03149,0.0954 -0.05631,0.13874c-0.0586,0.02728 0.00695,-0.04458 0.00612,-0.07047c0.03169,-0.07777 0.03533,-0.1644 0.02091,-0.24632c-0.0314,-0.11984 -0.15013,-0.17839 -0.2456,-0.24105c-0.03454,-0.01352 -0.10839,-0.09505 -0.09374,-0.01516c-0.0032,0.21657 -0.00265,0.43317 -0.00366,0.64976c-0.04008,0.10041 -0.13201,0.17705 -0.2388,0.19626c-0.03271,0.00565 -0.06697,0.00772 -0.09974,0.00134l0,0zm0.66582,-0.81886c0.00095,-0.12325 -0.09085,-0.22297 -0.18081,-0.29606c-0.04501,-0.03394 -0.0927,-0.06989 -0.14331,-0.09185c0.00311,0.07087 0.03555,0.13993 0.07437,0.19879c0.07316,0.09802 0.1836,0.16359 0.24489,0.27151c0.00735,-0.0268 0.00513,-0.05492 0.00487,-0.08238z" stroke-width="0" stroke="#000" fill="#d1b3ef"/>
  <path id="svg_16" d="m691.97905,138.80103c-0.0694,-0.01413 -0.12179,-0.08254 -0.10441,-0.15368c0.02457,-0.0998 0.11768,-0.16883 0.21086,-0.20164c0.06207,-0.02061 0.1325,-0.0175 0.19078,0.01315c0.0052,-0.38118 0.00223,-0.76246 0.00302,-1.14369c0.02104,-0.00001 0.04803,-0.0068 0.04232,0.02367c0.00294,0.06846 0.03658,0.13113 0.08828,0.17529c0.11534,0.10746 0.2451,0.22415 0.27159,0.38793c0.00752,0.0691 -0.00054,0.13873 -0.01589,0.20621c0.04546,0.08484 0.04272,0.18763 0.02426,0.27965c-0.01197,0.04859 -0.03149,0.0954 -0.05631,0.13874c-0.0586,0.02728 0.00695,-0.04458 0.00612,-0.07047c0.03169,-0.07777 0.03533,-0.1644 0.02091,-0.24632c-0.0314,-0.11984 -0.15013,-0.17839 -0.2456,-0.24105c-0.03454,-0.01352 -0.10839,-0.09505 -0.09374,-0.01516c-0.0032,0.21657 -0.00265,0.43317 -0.00366,0.64976c-0.04008,0.10041 -0.13201,0.17705 -0.2388,0.19626c-0.03271,0.00565 -0.06697,0.00772 -0.09974,0.00134l0,0zm0.66582,-0.81886c0.00095,-0.12325 -0.09085,-0.22297 -0.18081,-0.29606c-0.04501,-0.03394 -0.0927,-0.06989 -0.14331,-0.09185c0.00311,0.07087 0.03555,0.13993 0.07437,0.19879c0.07316,0.09802 0.1836,0.16359 0.24489,0.27151c0.00735,-0.0268 0.00513,-0.05492 0.00487,-0.08238z" stroke-width="0" stroke="#000" fill="#d1b3ef"/>
 </g>
</svg>